# xmcd
#
# Track frame offsets: 
#        150
#        11840
#        21135
#        39510
#        51127
#        66437
#        77522
#        93627
#        104677
#        119560
#        131677
#
# Disc length: 2001 seconds
#
# Revision: 5
# Processed by: cddbd v1.5.2PL0 Copyright (c) Steve Scherf et al.
# Submitted via: ExactAudioCopyFreeDBPlugin 1.0
#
DISCID=9807cf0b
DTITLE=SARA EVANS - Three Chords And The Truth
DYEAR=1997
DGENRE=Country
TTITLE0=True Lies
TTITLE1=Shame About That
TTITLE2=Three Cords And The Truth
TTITLE3=If You Ever Want My Lovin'
TTITLE4=Imagine That
TTITLE5=Even Now
TTITLE6=I Don't Wanna See The Light
TTITLE7=I've Got A Tiger By The Tail
TTITLE8=Unopened
TTITLE9=Walk Out Backwards
TTITLE10=The Week The River Raged
EXTD=YEAR: 1997
EXTT0=
EXTT1=
EXTT2=
EXTT3=
EXTT4=
EXTT5=
EXTT6=
EXTT7=
EXTT8=
EXTT9=
EXTT10=
PLAYORDER=
